<svg xmlns="http://www.w3.org/2000/svg" id="a" viewBox="-40.95 363.42 1158.36 340.1"><defs><style>.b{fill:#faf9f5;}</style></defs><g><polygon class="b" points="419.53 363.43 398.83 478.49 337.13 478.49 357.83 363.43 419.53 363.43"/><polygon class="b" points="411.66 407.22 12.37 407.22 20.25 363.43 419.53 363.43 411.66 407.22"/><polygon class="b" points="358.34 703.52 -40.95 703.52 -33.07 659.74 366.22 659.74 358.34 703.52"/><polygon class="b" points="81.95 363.43 20.75 703.52 -40.95 703.52 20.25 363.43 81.95 363.43"/><polygon class="b" points="379.04 588.46 358.34 703.52 296.64 703.52 317.34 588.46 379.04 588.46"/><polygon class="b" points="320.29 470.05 82 470.05 89.88 426.27 328.17 426.27 320.29 470.05"/><polygon class="b" points="289.6 640.77 51.78 640.77 59.64 596.99 297.46 596.99 289.6 640.77"/><polygon class="b" points="328.17 426.27 292.46 624.72 230.76 624.72 266.47 426.27 328.17 426.27"/><polygon class="b" points="125.97 565.99 112.52 640.77 50.82 640.77 64.27 565.99 125.97 565.99"/><polygon class="b" points="151.58 426.27 138.12 501.06 76.42 501.06 89.88 426.27 151.58 426.27"/></g><path class="b" d="M603.09,384.16h-151.19c2.28-11.45,11.28-20.72,20.1-20.72h114.08c10.93,0,19.14,10,17,20.72h0Z"/><path class="b" d="M579.09,503.68c-4.16,6.51-10.99,14.61-21.61,19.31-1.22,.54-2.42,1.01-3.61,1.41h-113.93c-8.81,0-14.11-9.28-11.83-20.72h0c50.33,0,100.66,0,150.99,0Z"/><path class="b" d="M488.35,363.43l-32.05,160.97h-15.18c-9.47,0-15.16-9.96-12.71-22.24,7.83-39.34,15.67-78.67,23.5-118.01,.43-2.23,2-8.74,7.88-14.17,5.33-4.92,11.2-6.18,13.51-6.56h15.06Z"/><path class="b" d="M603.08,384.02c-2.24,11.29-4.48,22.58-6.72,33.88h-32.32l10.84-54.46h11.2c.93,0,8.61,.13,13.68,6.64,4.72,6.06,3.52,12.92,3.32,13.95Z"/><path class="b" d="M585.99,469.94l-7.46,37.45c-1.97,9.89-10.65,17.01-20.73,17.01h-14.97c3.61-18.15,7.23-36.31,10.84-54.46h32.32Z"/><g><path class="b" d="M710.31,437h-105.6l4.13-20.72h89.62c8.82,0,14.13,9.28,11.85,20.72h0Z"/><polygon class="b" points="641.16 416.69 619.71 524.4 587.39 524.4 608.84 416.69 641.16 416.69"/></g><g><path class="b" d="M939.67,503.44l17.21-86.44h16.07c8.97,0,14.37,9.44,12.05,21.08l-13.01,65.36c-2.31,11.58-11.41,20.96-20.33,20.96h0c-8.92,0-14.29-9.39-11.99-20.96Z"/><path class="b" d="M925.69,521.29l-23.9-71.66c-1.6-4.78,2.34-11.31,6.83-11.31h18.88c1.78,0,3.24,1.11,3.91,2.98l25.7,71.66c1.71,4.77-2.24,11.44-6.78,11.44h-20.68c-1.83,0-3.3-1.16-3.95-3.11Z"/><path class="b" d="M866.32,521.09l53.02-70.05c4.01-5.3,2.57-12.72-2.47-12.72h-19.14c-2.03,0-4.19,1.29-5.77,3.46l-51.26,70.05c-3.89,5.32-2.4,12.58,2.58,12.58h17.38c1.98,0,4.09-1.23,5.67-3.32Z"/><path class="b" d="M829.74,503.44l13.04-65.47c2.31-11.58,11.41-20.96,20.33-20.96h16.16l-21.39,107.4h-16.16c-8.92,0-14.29-9.39-11.99-20.96Z"/></g><path class="b" d="M795.58,524.4h-73.7c-8.82,0-14.13-9.28-11.85-20.72h105.64c-2.28,11.45-11.28,20.72-20.1,20.72Z"/><path class="b" d="M755.21,437.15c-4.3,22.26-8.6,44.52-12.9,66.78-6.46,2.41-12.93,4.82-19.39,7.23-4.29-2.49-8.59-4.98-12.88-7.48,4.37-22.23,8.73-44.45,13.1-66.68,8.47-5.35,16.93-10.7,25.4-16.04l6.68,16.19Z"/><path class="b" d="M829.17,435.91l-13.47,67.65c-2.29,11.51-11.34,20.84-20.22,20.84h-16.25l21.21-106.52h18.42c7.68,0,12.29,8.07,10.31,18.03Z"/><path class="b" d="M828.73,437h-105.6c2.28-11.45,11.28-20.72,20.1-20.72h73.65c8.82,0,14.13,9.28,11.85,20.72h0Z"/><path class="b" d="M1056.51,524.4l32.05-160.97h16.93c8.5,0,13.61,8.94,11.41,19.96l-28.08,141.01h-32.32Z"/><polygon class="b" points="1014.04 503.68 1088.13 503.68 1084 524.4 1009.91 524.4 1014.04 503.68"/><g><polygon class="b" points="1050.53 416.86 1094.08 416.86 1089.95 437.58 1046.41 437.58 1050.53 416.86"/><g><path class="b" d="M1008.39,523.25c-5.06-14.09-10.12-28.19-15.18-42.28-1.53-4.27,2.01-10.25,6.08-10.25h22.59l15.51,43.38c1.53,4.27-2.01,10.23-6.07,10.25-7.14,.02-14.27,.04-21.41,.06-.69,0-1.26-.43-1.52-1.16Z"/><path class="b" d="M1028.18,419.65l-30.89,40.81c-3.23,4.27-2.07,10.25,1.99,10.25h22.59l32.83-43.63c3.23-4.29,2.04-10.26-2.03-10.23l-19.95,.12c-1.59,0-3.28,1-4.54,2.67Z"/></g></g><ellipse class="b" cx="1006.89" cy="470.74" rx="19.02" ry="13.48" transform="translate(171.13 1203.48) rotate(-66.3)"/><g><g><g><path class="b" d="M567.25,563.27h-151.19c2.28-11.45,11.28-20.72,20.1-20.72h114.08c10.93,0,19.14,10,17,20.72h0Z"/><path class="b" d="M543.25,682.79c-4.16,6.51-10.99,14.61-21.61,19.31-1.22,.54-2.42,1.01-3.61,1.41h-113.93c-8.81,0-14.11-9.28-11.83-20.72h0c50.33,0,100.66,0,150.99,0Z"/><path class="b" d="M452.51,542.55l-32.05,160.97h-15.18c-9.47,0-15.16-9.96-12.71-22.24,7.83-39.34,15.67-78.67,23.5-118.01,.43-2.23,2-8.74,7.88-14.17,5.33-4.92,11.2-6.18,13.51-6.56h15.06Z"/><path class="b" d="M567.25,563.13c-2.24,11.29-4.48,22.58-6.72,33.88h-32.32l10.84-54.46h11.2c.93,0,8.61,.13,13.68,6.64,4.72,6.06,3.52,12.92,3.32,13.95Z"/><path class="b" d="M550.16,649.06l-7.46,37.45c-1.97,9.89-10.65,17.01-20.73,17.01h-14.97c3.61-18.15,7.23-36.31,10.84-54.46h32.32Z"/></g><path class="b" d="M567.5,563.59h-151.19c2.28-11.45,11.28-20.72,20.1-20.72h114.08c10.93,0,19.14,10,17,20.72h0Z"/><path class="b" d="M567.49,563.45c-2.24,11.29-4.48,22.58-6.72,33.88h-32.32l10.84-54.46h11.2c.93,0,8.61,.13,13.68,6.64,4.72,6.06,3.52,12.92,3.32,13.95Z"/></g><path class="b" d="M875.15,563.27h-131.53c1.98-11.45,9.81-20.72,17.49-20.72h99.25c9.51,0,16.65,10,14.79,20.72h0Z"/><path class="b" d="M856.78,682.79c-3.77,6.51-9.97,14.61-19.61,19.31-1.1,.54-2.2,1.01-3.28,1.41h-103.39c-7.99,0-12.8-9.28-10.74-20.72h0c45.67,0,91.34,0,137.01,0Z"/><path class="b" d="M780.07,542.55l-32.05,160.97h-15.18c-9.47,0-15.16-9.96-12.71-22.24,7.83-39.34,15.67-78.67,23.5-118.01,.43-2.23,2-8.74,7.88-14.17,5.33-4.92,11.2-6.18,13.51-6.56h15.06Z"/><g><path class="b" d="M731.05,563.27h-151.19c2.28-11.45,11.28-20.72,20.1-20.72h114.08c9.39,0,17,7.61,17,17v3.72Z"/><path class="b" d="M616.31,542.55l-32.05,160.97h-15.18c-9.47,0-15.16-9.96-12.71-22.24,7.83-39.34,15.67-78.67,23.5-118.01,.43-2.23,2-8.74,7.88-14.17,5.33-4.92,11.2-6.18,13.51-6.56h15.06Z"/><path class="b" d="M731.05,563.13c-2.24,11.29-4.48,22.58-6.72,33.88h-32.32l10.84-54.46h11.2c.93,0,8.61,.13,13.68,6.64,4.72,6.06,3.52,12.92,3.32,13.95Z"/><path class="b" d="M713.96,649.06l-10.84,54.46h-32.32c3.61-18.15,7.23-36.31,10.84-54.46h32.32Z"/><path class="b" d="M720.45,616.11h-150.96l5.9-20.72h128.13c12.61,0,20.2,9.28,16.94,20.72h0Z"/><polygon class="b" points="605.93 595.8 584.48 703.52 552.16 703.52 573.61 595.8 605.93 595.8"/><path class="b" d="M724.56,595.83l-10.84,54.46h-32.32c3.61-18.15,7.23-36.31,10.84-54.46h32.32Z"/></g><g><path class="b" d="M895.06,623.47c-2.54,15.22-17.67,22.69-19.54,23.58-1.72-1.01-4.22-2.79-6.48-5.77,0,0-5.49-7.23-5.2-17.81,.31-11.19,8.05-21.9,19.53-27.38,1.98,1.35,9.15,6.6,11.41,16.59,.19,.85,1.18,5.4,.28,10.8Z"/><path class="b" d="M876.43,545.44c6.19,22.71,12.38,45.42,18.58,68.14,1.15,4.22-1.97,9.8-5.48,9.8h-25.57l-22.5-70.8c-1.34-4.2,1.81-10.04,5.41-10.04h26.37c1.5,0,2.7,1.09,3.19,2.89Z"/><path class="b" d="M848.68,700.28l41.94-65.84c3.03-4.76,1.79-11.07-2.18-11.07h-24.5c-15.6,22.94-31.2,45.88-46.8,68.83-3.22,4.73-2.04,11.31,2.02,11.31h24.76c1.68,0,3.47-1.22,4.76-3.23Z"/></g></g></svg>