<svg xmlns="http://www.w3.org/2000/svg" id="a" viewBox="1.44 383.47 1077.12 313.05"><defs><style>.b{fill:#faf9f5;}</style></defs><g><polygon class="b" points="424.51 383.77 405.49 489.48 348.8 489.48 367.82 383.77 424.51 383.77"/><polygon class="b" points="417.27 424 50.42 424 57.66 383.77 424.51 383.77 417.27 424"/><polygon class="b" points="368.29 696.23 1.44 696.23 8.67 656 375.52 656 368.29 696.23"/><polygon class="b" points="114.35 383.77 58.13 696.23 1.44 696.23 57.66 383.77 114.35 383.77"/><polygon class="b" points="387.31 590.52 368.29 696.23 311.6 696.23 330.62 590.52 387.31 590.52"/><polygon class="b" points="333.33 481.73 114.4 481.73 121.63 441.5 340.57 441.5 333.33 481.73"/><polygon class="b" points="305.13 638.58 86.63 638.58 93.85 598.35 312.36 598.35 305.13 638.58"/><polygon class="b" points="340.57 441.5 307.76 623.83 251.07 623.83 283.88 441.5 340.57 441.5"/><polygon class="b" points="154.8 569.87 142.43 638.58 85.74 638.58 98.11 569.87 154.8 569.87"/><polygon class="b" points="178.32 441.5 165.96 510.21 109.27 510.21 121.63 441.5 178.32 441.5"/></g><g><g><path class="b" d="M448.94,460.52c7.81-44.08,42.18-77.05,86.46-77.05,16.36,0,29.82,3.97,38.66,11.52,11.64,9.73,16.85,24.23,15.7,40.91h-33.91c.47-13.9-8.88-24.23-25.63-24.23-25.34,0-41.6,20.85-46.56,48.85-4.99,28.2,6.14,48.65,29.49,48.65,18.15,0,31.4-11.72,35.71-27.01h34.11c-3.6,14.69-12.81,28.4-24.74,38.32-13.11,10.92-29.29,16.68-50.04,16.68-43.29,0-67.05-32.57-59.24-76.65Z"/><path class="b" d="M634.86,447.02h.6c9.39-14.69,20.02-20.65,33.18-20.65,2.99,0,5.15,.2,6.44,.79l-4.82,27.2h-.8c-2.12-.4-4.28-.6-6.48-.6-16.92-.2-29.96,10.33-33.62,30.98l-8.69,49.05h-31.32l18.71-105.64h30.12l-3.34,18.86Z"/><path class="b" d="M673.5,481.17c5.63-31.77,32.26-56,66.18-56s51.57,24.23,45.94,56c-5.59,31.57-32.06,56-65.78,56s-51.93-24.42-46.34-56Zm80.4,0c3.55-20.06-2.8-33.76-18.36-33.76s-26.77,13.7-30.32,33.76c-3.52,19.86,2.47,33.36,18.43,33.36s26.73-13.5,30.25-33.36Z"/><path class="b" d="M797.8,428.15h31.92l3.89,41.1c1.18,12.51,.38,32.77,.38,32.77h.4s7.01-20.45,12.66-33.16l17.98-40.71h26.53l3.96,40.71c1.34,12.71,1.07,33.36,1.07,33.36h.4s6.38-20.25,12.22-32.96l18.65-41.1h30.92l-51.63,105.64h-29.53l-3.54-43.09c-1.08-11.91-.85-32.37-.85-32.37h-.4s-7.38,20.25-12.72,32.37l-19.2,43.09h-29.13l-14-105.64Z"/><path class="b" d="M953.42,480.97c5.73-32.37,28.24-55.8,55.77-55.8,14.56,0,23.14,6.75,28.39,17.67h.4c.76-6.55,1.95-15.49,3.53-24.43l5.73-32.37h31.32l-26.17,147.74h-30.12l2.74-15.49h-.4c-8.47,12.91-21.3,18.86-35.66,18.86-27.53,0-41.72-21.25-35.53-56.2Zm78,0c3.31-18.67-2.08-32.17-18.24-32.17-14.76,0-24.47,13.11-27.81,31.97-3.38,19.06,1.82,31.37,16.39,31.37s26.39-12.71,29.66-31.18Z"/></g><g><path class="b" d="M421.82,619.88c7.81-44.08,42.18-77.05,86.46-77.05,16.36,0,29.82,3.97,38.66,11.52,11.64,9.73,16.85,24.23,15.69,40.91h-33.91c.47-13.9-8.88-24.23-25.63-24.23-25.34,0-41.6,20.85-46.56,48.85-4.99,28.2,6.14,48.65,29.49,48.65,18.15,0,31.4-11.72,35.71-27.01h34.11c-3.6,14.69-12.81,28.4-24.74,38.32-13.11,10.92-29.29,16.68-50.04,16.68-43.29,0-67.05-32.57-59.24-76.65Z"/><path class="b" d="M628.52,545.41h35.31l27.49,147.74h-35.91l-4.38-28.2h-53.86l-14.17,28.2h-34.11l79.63-147.74Zm-19.08,95.32h38.1l-4.09-27.6c-2.8-20.25-2.61-39.32-2.61-39.32h-.4s-9.58,24.82-16.94,39.32l-14.07,27.6Z"/><path class="b" d="M732.86,545.41h61.84c41.69,0,63.19,29.59,55.17,74.86-7.77,43.89-37.85,72.88-83.33,72.88h-59.85l26.17-147.74Zm36.15,119.15c25.73,0,41.15-16.08,46.15-44.28,4.96-28-4.57-46.27-29.51-46.27h-23.74l-16.04,90.55h23.14Z"/></g></g></svg>